# xmcd
#
# Track frame offsets:
#	150
#	23583
#	30975
#	45109
#	59301
#	72908
#	86916
#	98476
#	115546
#	126735
#	137078
#	151929
#	164682
#	179353
#	190636
#	200939
#	212011
#
# Disc length: 3125 seconds
#
# Revision: 0
# Processed by: cddbd v1.5.1PL0 Copyright (c) Steve Scherf et al.
# Submitted via: dBpowerAMP V4.0
#
DISCID=e50c3311
DTITLE=Shanty Chor "De goode Wind's" - seht die weissen segel
DYEAR=1900
DGENRE=Porn Groove
TTITLE0=Besanschot an
TTITLE1=seht die weissen segel
TTITLE2=rolling home
TTITLE3=shenandoah
TTITLE4=lieder, so schön wie der norden
TTITLE5=die kneipe am moor
TTITLE6=in, n schwedschen hering
TTITLE7=aloha heija he
TTITLE8=is a long time ago
TTITLE9=johnny come along
TTITLE10=sailing
TTITLE11=die viermastbark
TTITLE12=stolz ist das schiff
TTITLE13=sally brown
TTITLE14=wir lagen von madagaskar
TTITLE15=baltimore
TTITLE16=blaue jungs(seemanslieder medley)
EXTD=
EXTT0=
EXTT1=
EXTT2=
EXTT3=
EXTT4=
EXTT5=
EXTT6=
EXTT7=
EXTT8=
EXTT9=
EXTT10=
EXTT11=
EXTT12=
EXTT13=
EXTT14=
EXTT15=
EXTT16=
PLAYORDER=
